<svg width="12" height="12" viewBox="0 0 12 12" fill="none" xmlns="http://www.w3.org/2000/svg">
<path fill-rule="evenodd" clip-rule="evenodd" d="M6 0C6.22799 0 6.43412 0.141949 6.5243 0.361056L7.93371 3.78551L11.4818 4.12984C11.7089 4.15187 11.9016 4.31313 11.972 4.54002C12.0425 4.7669 11.9772 5.01589 11.8059 5.17334L9.12881 7.6341L9.91227 11.2714C9.96239 11.5041 9.87537 11.7457 9.69092 11.8859C9.50647 12.0261 9.25997 12.0381 9.06393 11.9163L6 10.0127L2.93607 11.9163C2.74003 12.0381 2.49353 12.0261 2.30908 11.8859C2.12463 11.7457 2.0376 11.5041 2.08773 11.2714L2.87119 7.6341L0.19412 5.17334C0.0228336 5.01589 -0.0424914 4.7669 0.0279626 4.54002C0.0984165 4.31313 0.291137 4.15187 0.518156 4.12984L4.06629 3.78551L5.4757 0.361056C5.56588 0.141949 5.77201 0 6 0ZM6 2.10746L4.98082 4.58376C4.89818 4.78456 4.71729 4.92208 4.50924 4.94227L1.9435 5.19126L3.87936 6.97069C4.03633 7.11498 4.10543 7.33748 4.05949 7.55076L3.49295 10.181L5.70855 8.8044C5.88821 8.69278 6.11179 8.69278 6.29145 8.8044L8.50705 10.181L7.94051 7.55076C7.89457 7.33748 7.96367 7.11498 8.12064 6.97069L10.0565 5.19126L7.49076 4.94227C7.2827 4.92208 7.10182 4.78456 7.01917 4.58376L6 2.10746Z" fill="#A95A00"/>
</svg>
